<svg width="31" height="36" viewBox="0 0 31 36" fill="none" xmlns="http://www.w3.org/2000/svg" >
<ellipse cx="15.8072" cy="12.0364" rx="8.95091" ry="8.8158" fill="#FFFFFF"/>
<path d="M27.0528 11.0296C29.7044 14.0958 24.4423 1.71503 15.7367 1.71503C7.0311 1.71503 2.16979 12.6848 4.42066 11.0296C4.42066 4.99835 9.48703 0.10907 15.7367 0.10907C21.9864 0.10907 27.0528 4.99835 27.0528 11.0296Z" fill="#FFFFFF"/>
<path d="M30.7253 32.4476C30.7253 37.7059 23.9349 35.3771 15.5585 35.3771C7.18208 35.3771 0.391663 37.7059 0.391663 32.4476C0.391663 27.1892 7.18208 22.9265 15.5585 22.9265C23.9349 22.9265 30.7253 27.1892 30.7253 32.4476Z" fill="#FFFFFF"/>
<rect x="2.87811" y="7.3692" width="3.97818" height="9.33438" rx="1.98909" fill="#FFFFFF"/>
<rect x="24.7582" y="7.3692" width="3.97818" height="9.33438" rx="1.98909" fill="#FFFFFF"/>
</svg>
