<svg width="247" height="61" viewBox="0 0 247 61" fill="none" xmlns="http://www.w3.org/2000/svg">
<path d="M9.99756 43.5615C8.09326 43.5615 6.47786 43.0732 5.15137 42.0967C3.82487 41.1201 2.8361 39.757 2.18506 38.0073C1.54215 36.2576 1.2207 34.1743 1.2207 31.7573C1.2207 29.9914 1.44857 28.376 1.9043 26.9111C2.36816 25.4463 3.01107 24.2134 3.83301 23.2124C4.66309 22.2033 5.65999 21.4261 6.82373 20.8809C7.99561 20.3275 9.27734 20.0508 10.6689 20.0508C11.3688 20.0508 12.028 20.1159 12.6465 20.2461C13.265 20.3682 13.7899 20.5228 14.2212 20.71C14.6606 20.8971 15.0757 21.1291 15.4663 21.4058C15.8569 21.6825 16.1702 21.9429 16.4062 22.187C16.6504 22.4312 16.8864 22.7038 17.1143 23.0049V16.6328H14.6729V12.7266H23.9502V39.0938H26.3916V43H19.1406L17.6636 40.168C17.3462 40.6074 16.9881 41.0103 16.5894 41.3765C14.978 42.8332 12.7808 43.5615 9.99756 43.5615ZM17.1143 27.1431C16.1865 25.4341 14.9251 24.5796 13.3301 24.5796C11.7188 24.5796 10.5184 25.2103 9.729 26.4717C8.94775 27.7331 8.55713 29.5234 8.55713 31.8428C8.55713 32.9333 8.68327 33.9424 8.93555 34.8701C9.19596 35.7897 9.53776 36.5547 9.96094 37.165C10.3923 37.7754 10.8846 38.2515 11.438 38.5933C11.9914 38.9269 12.5692 39.0938 13.1714 39.0938C13.9852 39.0938 14.7054 38.87 15.332 38.4224C15.9668 37.9666 16.5609 37.2952 17.1143 36.4082V27.1431ZM31.7017 17.939C30.9448 17.174 30.5664 16.2503 30.5664 15.168C30.5664 14.0856 30.9448 13.166 31.7017 12.4092C32.4666 11.6442 33.3903 11.2617 34.4727 11.2617C35.555 11.2617 36.4746 11.6442 37.2314 12.4092C37.9964 13.166 38.3789 14.0856 38.3789 15.168C38.3789 16.2503 37.9964 17.174 37.2314 17.939C36.4746 18.6958 35.555 19.0742 34.4727 19.0742C33.3903 19.0742 32.4666 18.6958 31.7017 17.939ZM28.6133 20.5391H37.8906V39.0938H40.332V43H28.6133V39.0938H31.0547V24.4453H28.6133V20.5391ZM49.4629 39.106C49.9268 39.4233 50.6266 39.582 51.5625 39.582C52.4007 39.582 53.0802 39.5332 53.6011 39.4355C54.13 39.3379 54.5288 39.1792 54.7974 38.9595C55.0659 38.7316 55.245 38.4834 55.3345 38.2148C55.424 37.9382 55.4688 37.5801 55.4688 37.1406C55.4688 36.6198 55.3304 36.1722 55.0537 35.7979C54.777 35.4235 54.4027 35.1224 53.9307 34.8945C53.4587 34.6667 52.9175 34.4673 52.3071 34.2964C51.6968 34.1174 51.0539 33.9505 50.3784 33.7959C49.703 33.6331 49.0275 33.4582 48.3521 33.271C47.6766 33.0757 47.0337 32.8234 46.4233 32.5142C45.813 32.1968 45.2718 31.8265 44.7998 31.4033C44.3278 30.972 43.9535 30.4146 43.6768 29.731C43.4001 29.0474 43.2617 28.262 43.2617 27.375C43.2617 26.5612 43.3594 25.8206 43.5547 25.1533C43.75 24.486 44.0104 23.9204 44.3359 23.4565C44.6615 22.9845 45.0724 22.5736 45.5688 22.2236C46.0653 21.8737 46.582 21.5929 47.1191 21.3813C47.6644 21.1698 48.2747 20.9989 48.9502 20.8687C49.6338 20.7384 50.293 20.653 50.9277 20.6123C51.5625 20.5635 52.2542 20.5391 53.0029 20.5391C54.6305 20.5391 56.0506 20.7466 57.2632 21.1616C58.4839 21.5767 59.4442 22.1341 60.144 22.834C60.5184 23.1514 60.8073 23.5379 61.0107 23.9937C61.2223 24.4412 61.3281 24.9173 61.3281 25.4219C61.3281 26.3659 60.9945 27.1715 60.3271 27.8389C59.6598 28.5062 58.8542 28.8398 57.9102 28.8398C56.9661 28.8398 56.1605 28.5062 55.4932 27.8389C54.8258 27.1715 54.4922 26.3659 54.4922 25.4219C54.4922 25.0801 54.541 24.7505 54.6387 24.4331C54.1748 24.1157 53.4749 23.957 52.5391 23.957C51.3916 23.957 50.533 24.0954 49.9634 24.3721C49.4019 24.6488 49.1211 25.1615 49.1211 25.9102C49.1211 26.3822 49.2391 26.8013 49.4751 27.1675C49.7111 27.5256 50.0326 27.8226 50.4395 28.0586C50.8464 28.2865 51.3184 28.5062 51.8555 28.7178C52.4007 28.9212 52.9785 29.0962 53.5889 29.2427C54.1992 29.381 54.8258 29.5519 55.4688 29.7554C56.1117 29.9588 56.7383 30.1663 57.3486 30.3779C57.959 30.5895 58.5327 30.8703 59.0698 31.2202C59.6151 31.562 60.0911 31.9486 60.498 32.3799C60.9049 32.8112 61.2264 33.3524 61.4624 34.0034C61.6984 34.6463 61.8164 35.3665 61.8164 36.1641C61.8164 37.3034 61.6252 38.3084 61.2427 39.1792C60.8683 40.0418 60.3638 40.7417 59.729 41.2788C59.1024 41.8159 58.3211 42.2554 57.3853 42.5972C56.4494 42.9308 55.4769 43.1628 54.4678 43.293C53.4587 43.4232 52.3356 43.4883 51.0986 43.4883C48.6003 43.4883 46.5861 43.0122 45.0562 42.0601C43.5343 41.1079 42.7734 39.7936 42.7734 38.1172C42.7734 37.1732 43.1071 36.3675 43.7744 35.7002C44.4417 35.0329 45.2474 34.6992 46.1914 34.6992C47.1354 34.6992 47.9411 35.0329 48.6084 35.7002C49.2757 36.3675 49.6094 37.1732 49.6094 38.1172C49.6094 38.459 49.5605 38.7886 49.4629 39.106ZM73.5229 43.4883C71.6187 43.4883 70.0033 43.0081 68.6768 42.0479C67.3503 41.0794 66.3615 39.7244 65.7104 37.9829C65.0675 36.2414 64.7461 34.1662 64.7461 31.7573C64.7461 29.9914 64.9902 28.376 65.4785 26.9111C65.9668 25.4382 66.6423 24.2052 67.5049 23.2124C68.3675 22.2114 69.3929 21.4342 70.5811 20.8809C71.7773 20.3275 73.0754 20.0508 74.4751 20.0508C75.1261 20.0508 75.7528 20.1077 76.355 20.2217C76.9572 20.3356 77.4821 20.478 77.9297 20.6489C78.3773 20.8117 78.8127 21.0233 79.2358 21.2837C79.6672 21.5441 80.0212 21.7842 80.2979 22.0039C80.5827 22.2236 80.8634 22.484 81.1401 22.7852C81.425 23.0863 81.6325 23.3223 81.7627 23.4932C81.901 23.6641 82.0516 23.8634 82.2144 24.0913L84.5947 20.5391H87.8296V46.9062H90.271V50.8125H78.5522V46.9062H80.9937V39.3379C80.66 39.9157 80.2694 40.4447 79.8218 40.9248C79.3742 41.4049 78.8452 41.8444 78.2349 42.2432C77.6326 42.6338 76.9287 42.939 76.123 43.1587C75.3174 43.3784 74.4507 43.4883 73.5229 43.4883ZM80.9937 27.8755C80.5623 26.8664 80.0008 26.0648 79.3091 25.4707C78.6255 24.8766 77.8076 24.5796 76.8555 24.5796C75.2441 24.5796 74.0438 25.2103 73.2544 26.4717C72.4731 27.7331 72.0825 29.5234 72.0825 31.8428C72.0825 32.9333 72.2087 33.9424 72.4609 34.8701C72.7214 35.7897 73.0632 36.5547 73.4863 37.165C73.9176 37.7754 74.41 38.2515 74.9634 38.5933C75.5168 38.9269 76.0946 39.0938 76.6968 39.0938C77.592 39.0938 78.3773 38.8211 79.0527 38.2759C79.7363 37.7225 80.3833 36.9006 80.9937 35.8101V27.8755ZM91.748 20.5391H101.025V34.2109C101.025 35.4967 101.139 36.4977 101.367 37.2139C101.603 37.93 101.937 38.4224 102.368 38.6909C102.808 38.9595 103.402 39.0938 104.15 39.0938C104.834 39.0938 105.534 38.8049 106.25 38.2271C106.974 37.6493 107.658 36.8436 108.301 35.8101L108.35 24.4453H105.908V20.5391H115.186V39.0938H117.627V43H110.046L108.337 39.6797C106.962 42.2188 104.688 43.4883 101.514 43.4883C100.374 43.4883 99.3774 43.3337 98.5229 43.0244C97.6685 42.7152 96.9686 42.292 96.4233 41.7549C95.8781 41.2096 95.4346 40.522 95.0928 39.6919C94.7591 38.8537 94.5231 37.9585 94.3848 37.0063C94.2546 36.0461 94.1895 34.9515 94.1895 33.7227V24.4453H91.748V20.5391Z" fill="black"/>
<path d="M161.977 20.5391H175.648V24.4453H171.632L175.502 33.2344C175.998 34.39 176.356 35.3665 176.576 36.1641C176.796 35.3665 177.154 34.39 177.65 33.2344L181.508 24.4453H178.09V20.5391H188.344V24.4453H185.756L177.602 43H172.426L164.271 24.4453H161.977V20.5391ZM196.864 33.2344C196.938 34.1784 197.092 35.0207 197.328 35.7612C197.564 36.5018 197.849 37.1081 198.183 37.5801C198.524 38.0521 198.919 38.4427 199.367 38.752C199.814 39.0531 200.274 39.2687 200.746 39.3989C201.218 39.521 201.723 39.582 202.26 39.582C203.977 39.582 205.316 39.2524 206.276 38.5933C207.244 37.9259 208.017 36.9006 208.595 35.5171L211.842 36.6401C211.549 37.4295 211.175 38.1742 210.719 38.874C210.272 39.5658 209.73 40.2046 209.096 40.7905C208.461 41.3765 207.753 41.881 206.972 42.3042C206.199 42.7192 205.324 43.0448 204.347 43.2808C203.371 43.5168 202.341 43.6348 201.259 43.6348C199.656 43.6348 198.138 43.354 196.706 42.7925C195.281 42.231 194.04 41.4497 192.982 40.4487C191.933 39.4396 191.098 38.1986 190.48 36.7256C189.87 35.2526 189.564 33.6494 189.564 31.916C189.564 30.1826 189.87 28.5713 190.48 27.082C191.098 25.5928 191.933 24.3395 192.982 23.3223C194.04 22.2969 195.281 21.4953 196.706 20.9175C198.138 20.3397 199.656 20.0508 201.259 20.0508C202.862 20.0508 204.376 20.3397 205.8 20.9175C207.232 21.4953 208.473 22.2969 209.523 23.3223C210.581 24.3395 211.415 25.5928 212.025 27.082C212.644 28.5713 212.953 30.1826 212.953 31.916L212.648 33.2344H196.864ZM196.95 29.3281H205.568C205.356 27.4564 204.888 26.0933 204.164 25.2388C203.44 24.3843 202.479 23.957 201.283 23.957C200.689 23.957 200.156 24.0547 199.684 24.25C199.212 24.4372 198.789 24.7424 198.415 25.1655C198.04 25.5806 197.727 26.138 197.475 26.8379C197.23 27.5296 197.056 28.3597 196.95 29.3281ZM214.906 20.5391H222.487L224.025 23.5054C225.465 21.2023 227.504 20.0508 230.141 20.0508C231.907 20.0508 233.306 20.596 234.34 21.6865C235.382 22.7689 235.902 24.1768 235.902 25.9102C235.902 26.9925 235.52 27.9162 234.755 28.6812C233.998 29.438 233.078 29.8164 231.996 29.8164C230.914 29.8164 229.99 29.438 229.225 28.6812C228.468 27.9162 228.09 26.9925 228.09 25.9102C228.09 25.4707 228.159 25.0475 228.297 24.6406C228.078 24.5104 227.846 24.4453 227.602 24.4453C227.056 24.4453 226.491 24.8034 225.905 25.5195C225.327 26.2275 224.77 27.2896 224.232 28.7056L224.184 39.0938H229.555V43H214.906V39.0938H217.348V24.4453H214.906V20.5391Z" fill="black"/>
<path d="M135.571 50.5871C132.595 49.8557 129.965 48.5262 127.66 46.6703C123.258 43.125 120.551 38.6461 120.09 32.8554C119.836 29.6775 120.117 26.5933 120.966 23.583C121.378 22.1245 122.283 20.7825 123.086 19.461C125.562 15.3835 129.177 12.6203 133.621 11.0647C135.463 10.4198 137.514 10.33 139.483 10.098C141.618 9.84636 143.737 10.0903 145.798 10.7035C149.023 11.6635 151.883 13.2063 154.371 15.5556C157.191 18.2188 159.184 21.3077 160.205 25.0263C161.402 29.3887 161.288 33.7178 159.586 37.928C157.048 44.2065 152.524 48.4008 145.997 50.2778C143.044 51.1267 139.988 51.1671 136.939 50.7103C136.511 50.6463 136.077 50.6304 135.571 50.5871ZM144.851 25.9859C144.583 25.7948 144.311 25.6084 144.046 25.4119C142.473 24.2428 140.737 23.7372 138.829 24.3456C135.553 25.3897 133.608 28.2008 134.083 31.3539C134.495 34.0792 136.141 35.8776 138.753 36.6611C141.097 37.3643 143.162 36.531 144.898 34.9757C146.169 33.8365 147.674 31.0997 146.497 28.8323C146.014 27.8997 145.474 26.9959 144.851 25.9859ZM156.383 41.6772C157.254 40.4182 157.232 40.3417 155.906 39.6379C155.325 39.3295 154.752 39.0052 154.185 38.6713C151.915 37.3346 149.647 35.9951 147.384 34.6476C146.869 34.3411 146.52 34.3568 146.148 34.9212C145.805 35.4407 145.348 35.9371 144.831 36.2759C144.189 36.6965 144.315 37.0799 144.617 37.5979C146.293 40.4749 147.988 43.3421 149.607 46.2512C150.08 47.1008 150.524 47.1242 151.236 46.6212C153.165 45.2587 154.859 43.6542 156.383 41.6772ZM133.87 19.5249C132.92 17.8911 131.926 16.2809 131.041 14.6124C130.67 13.9109 130.276 13.8298 129.721 14.2447C127.669 15.7795 125.72 17.4253 124.296 19.597C123.636 20.6029 123.681 20.7759 124.784 21.4148C127.654 23.0773 130.528 24.732 133.394 26.4022C133.912 26.7044 134.285 26.6963 134.661 26.1588C135.021 25.6457 135.413 25.0925 135.924 24.763C136.601 24.3263 136.4 23.9197 136.119 23.4327C135.392 22.1731 134.66 20.9168 133.87 19.5249Z" fill="#242122"/>
<path d="M138.094 28.7212C139.208 27.4346 140.212 27.1912 141.582 27.8328C142.829 28.417 143.588 29.8292 143.335 31.0953C143.093 32.3096 141.714 33.49 140.443 33.5711C138.964 33.6654 137.478 32.239 137.586 30.7408C137.634 30.0786 137.884 29.431 138.094 28.7212Z" fill="#262324"/>
</svg>
